


















                      Eureka.S05E12.DVDRip.XviD-INQUISITION
                      _____________________________________
 











Episode Name: Double-Take
Season: 5
Episode: 12
Aired: 2012-07-09

Episode Overview:
The people of Eureka and being kidnapped and replaced by body-doubles one by one unless Allison, Fargo and Zane can figure out how to avoid capture and save their town.


General
Complete name : eureka.s05e12.dvdrip.xvid-inquisition.avi
Format : AVI
Format/Info : Audio Video Interleave
File size : 350 MiB
Duration : 43mn 19s
Overall bit rate mode : Variable
Overall bit rate : 1 130 Kbps
Writing application : Nandub v1.0rc2
Writing library : Nandub build 1852/release
Video
ID : 0
Format : MPEG-4 Visual
Format profile : Advanced Simple@L5
Format settings, BVOP : No
Format settings, QPel : No
Format settings, GMC : No warppoints
Format settings, Matrix : Default (H.263)
Codec ID : XVID
Codec ID/Hint : XviD
Duration : 43mn 19s
Bit rate : 999 Kbps
Width : 624 pixels
Height : 352 pixels
Display aspect ratio : 16:9
Frame rate : 23.976 fps
Color space : YUV
Chroma subsampling : 4:2:0
Bit depth : 8 bits
Scan type : Progressive
Compression mode : Lossy
Bits/(Pixel*Frame) : 0.190
Stream size : 310 MiB (88%)
Writing library : XviD 1.2.1 (UTC 2008-12-04)
Audio
ID : 1
Format : MPEG Audio
Format version : Version 1
Format profile : Layer 3
Mode : Joint stereo
Mode extension : MS Stereo
Codec ID : 55
Codec ID/Hint : MP3
Duration : 43mn 19s
Bit rate mode : Variable
Bit rate : 118 Kbps
Nominal bit rate : 128 Kbps
Channel(s) : 2 channels
Sampling rate : 48.0 KHz
Compression mode : Lossy
Stream size : 36.6 MiB (10%)
Alignment : Aligned on interleaves
Interleave, duration : 24 ms (0.58 video frame)
Interleave, preload duration : 149 ms
Writing library : LAME3.99r
Encoding settings : -m j -V 4 -q 2 -lowpass 17 --abr 128





THNKZ 2 THE ORIGINAL UPLOADER






PLZ HELP SEED & ENJOY SEASON 5 EPISODES 12 OF EUREKA...










                        4 MORE TV SERIES N COMPLETE SEASONS

                       ************************************ 
                       http://thepiratebay.org/user/FaMoUz/
                       ************************************







     FFFFFFFFF
     FFFFFFFFF      AA         MMMM   MMMM    OOOOOO    UU     UU   ZZZZZZZZZZ
     FF            AAAA        MM MM MM MM   OO    OO   UU     UU   ZZZZZZZZZZ
     FFFFFFF      AA  AA       MM  MMM  MM   OO    OO   UU     UU         ZZZ
     FFFFFFF     AA    AA      MM   M   MM   OO    OO   UU     UU       ZZZ
     FF         AAAAAAAAAA     MM       MM   OO    OO   UU     UU     ZZZ
     FF        AA        AA    MM       MM   OO    OO   UU     UU    ZZZZZZZZZ
     FF       AA          AA   MM       MM    OOOOOO     UUUUUUU     ZZZZZZZZZ

								

		